<svg xmlns="http://www.w3.org/2000/svg" viewBox="0 0 32 32" fill="none">
  <defs>
    <linearGradient id="fav-g" x1="0" y1="0" x2="32" y2="32" gradientUnits="userSpaceOnUse">
      <stop offset="0%" stop-color="#3B82F6"/>
      <stop offset="100%" stop-color="#8B5CF6"/>
    </linearGradient>
  </defs>
  <rect width="32" height="32" rx="8" fill="url(#fav-g)"/>
  <path d="M16 8c-3.6 0-6.4 2.2-6.4 5.4 0 1.6.9 3 2.2 4l-.5 6.6h3.5l.4-5.2h1.6l.4 5.2h3.5l-.5-6.6c1.4-1 2.3-2.4 2.3-4 0-3.2-2.8-5.4-6.5-5.4z" fill="white" opacity="0.95"/>
  <circle cx="13.5" cy="13" r="1" fill="url(#fav-g)"/>
  <circle cx="18.5" cy="13" r="1" fill="url(#fav-g)"/>
  <path d="M14 13.5c0 0 1 2 2 2s2-2 2-2" stroke="url(#fav-g)" stroke-width="1" fill="none" stroke-linecap="round"/>
</svg>
